<?xml version="1.0" encoding="UTF-8"?>
<svg xmlns="http://www.w3.org/2000/svg" xmlns:xlink="http://www.w3.org/1999/xlink"
     width="300" height="300" viewBox="-150.0 -150.0 300 300">
<defs>
<path d="M8.612159321677296,-63.74999999999999 A65,65,90,1,1,138.6121593216773,-63.74999999999999 A65,65,90,1,1,8.612159321677296,-63.74999999999999" stroke="lightblue" fill="none" id="d0" />
<path d="M-138.6121593216773,-63.74999999999999 A65,65,90,1,1,-8.612159321677296,-63.74999999999999 A65,65,90,1,1,-138.6121593216773,-63.74999999999999" stroke="lightblue" fill="none" id="d1" />
<path d="M-65.00000000000001,63.75 A65,65,90,1,1,64.99999999999999,63.75 A65,65,90,1,1,-65.00000000000001,63.75" stroke="lightblue" fill="none" id="d2" />
<path d="M-150.0,75.0 C-75.0,-300,100.0,300,250.0,-150.0" stroke="red" fill="none" id="d3" />
</defs>
<use xlink:href="#d0" />
<circle cx="8.612159321677296" cy="-63.74999999999999" r="1" stroke="blue" />
<text x="0" y="0" font-size="10" letter-spacing="1.5" dy="0" startOffset="10%"><textPath xlink:href="#d0" dy="0" startOffset="10%">
<tspan dy="0">text on a closed path with 10% offset and increased letter spacing</tspan>
</textPath></text>
<use xlink:href="#d1" />
<circle cx="-138.6121593216773" cy="-63.74999999999999" r="1" stroke="blue" />
<g><text x="0" y="0" font-size="10" dy="0em"><textPath xlink:href="#d1" dy="0em" startOffset="0">
<tspan dy="0em">just some text on a closed path</tspan>
</textPath></text><text x="0" y="0" font-size="10" dy="1em"><textPath xlink:href="#d1" dy="1em" startOffset="0">
<tspan dy="1em">with multiple lines</tspan>
</textPath></text></g>
<use xlink:href="#d2" />
<circle cx="-65.00000000000001" cy="63.75" r="1" stroke="blue" />
<text x="0" y="0" font-size="10" dy="7" text-anchor="middle" startOffset="75%"><textPath xlink:href="#d2" dy="7" text-anchor="middle" startOffset="75%">
<tspan dy="7" text-anchor="middle">just some centered text around 75% offset</tspan>
</textPath></text>
<use xlink:href="#d3" />
<circle cx="-150.0" cy="75.0" r="1" stroke="blue" />
<g><text x="0" y="0" font-size="10" dy="1em"><textPath xlink:href="#d3" dy="1em" startOffset="0">
<tspan dy="1em">it can be used for any path element, including paths that are not closed</tspan>
</textPath></text><text x="0" y="0" font-size="10" dy="2em"><textPath xlink:href="#d3" dy="2em" startOffset="0">
<tspan dy="2em">and automatically shifts the path for consecutive lines</tspan>
</textPath></text></g>
<text x="0" y="140.0" font-size="10" dy="0" text-anchor="middle"><tspan dy="0" text-anchor="middle">this is just a regular text without any path</tspan></text>
<text x="0" y="-143.0" font-size="10" letter-spacing="1.25" dy="0" text-anchor="middle"><tspan dy="0" text-anchor="middle">regular text with increased letter spacing</tspan></text>
</svg>