<?xml version="1.0" encoding="UTF-8"?>
<svg xmlns="http://www.w3.org/2000/svg" xmlns:xlink="http://www.w3.org/1999/xlink"
     width="300" height="300" viewBox="-150.0 -150.0 300 300">
<defs>
<path d="M8.612159321677296,-63.74999999999999 A65,65,90,1,1,138.6121593216773,-63.74999999999999 A65,65,90,1,1,8.612159321677296,-63.74999999999999" stroke="lightblue" fill="none" id="d0" />
<path d="M-138.6121593216773,-63.74999999999999 A65,65,90,1,1,-8.612159321677296,-63.74999999999999 A65,65,90,1,1,-138.6121593216773,-63.74999999999999" stroke="lightblue" fill="none" id="d1" />
<path d="M-65.00000000000001,63.75 A65,65,90,1,1,64.99999999999999,63.75 A65,65,90,1,1,-65.00000000000001,63.75" stroke="lightblue" fill="none" id="d2" />
<path d="M-100.0,75.0 C-100.0,-300,100.0,300,250.0,-150.0" stroke="red" fill="none" id="d3" />
</defs>
<use xlink:href="#d0" />
<circle cx="8.612159321677296" cy="-63.74999999999999" r="1" stroke="blue" />
<text x="0" y="0" font-size="10"><textPath xlink:href="#d0" startOffset="10%" side="left" method="align" spacing="exact">text on a closed path with 10% offset</textPath></text>
<use xlink:href="#d1" />
<circle cx="-138.6121593216773" cy="-63.74999999999999" r="1" stroke="blue" />
<text x="0" y="0" font-size="10"><textPath xlink:href="#d1" startOffset="0" side="left" method="align" spacing="exact">just some text on a closed path</textPath></text>
<use xlink:href="#d2" />
<circle cx="-65.00000000000001" cy="63.75" r="1" stroke="blue" />
<text x="0" y="0" font-size="10" text-anchor="middle"><textPath xlink:href="#d2" startOffset="50%" side="left" method="align" spacing="exact">just some centered text around 50% offset</textPath></text>
<use xlink:href="#d3" />
<circle cx="-100.0" cy="75.0" r="1" stroke="blue" />
<text x="0" y="0" font-size="10"><textPath xlink:href="#d3" startOffset="0" side="left" method="align" spacing="exact">it can be used for any path element, including paths that are not closed</textPath></text>
</svg>