<?xml version="1.0" encoding="UTF-8"?>
<svg xmlns="http://www.w3.org/2000/svg" xmlns:xlink="http://www.w3.org/1999/xlink"
     width="650" height="100" viewBox="0 0 650 100">
<defs>
</defs>
<path d="M40,50 C10,10,140,10,110,50" stroke="black" fill="none" stroke-width="3" transform="translate(0,0)translate(0,0)translate(0,0)translate(0,0)translate(0,0)translate(0,0)translate(0,0)translate(0,0)translate(0,0)translate(0,0)translate(0,0)translate(0,0)translate(0,0)translate(0,0)translate(0,0)translate(0,0)translate(0,0)translate(0,0)translate(0,0)translate(0,0)translate(0,0)translate(0,0)translate(0,0)translate(0,0)translate(0,0)translate(0,0)translate(0,0)translate(0,0)translate(0,0)translate(0,0)translate(0,0)translate(0,0)translate(0,0)translate(0,0)translate(0,0)translate(0,0)translate(0,0)translate(0,0)translate(0,0)translate(0,0)translate(0,0)translate(0,0)translate(0,0)translate(0,0)translate(0,0)translate(0,0)translate(0,0)translate(0,0)translate(0,0)translate(0,0)translate(0,0)translate(0,0)translate(0,0)translate(0,0)translate(0,0)translate(0,0)translate(0,0)translate(0,0)translate(0,0)translate(0,0)translate(0,0)translate(0,0)translate(0,0)translate(0,0)translate(0,0)translate(0,0)translate(0,0)translate(0,0)translate(0,0)translate(0,0)translate(0,0)translate(0,0)translate(0,0)translate(0,0)translate(0,0)translate(0,0)translate(0,0)translate(0,0)translate(0,0)translate(0,0)translate(0,0)translate(0,0)translate(0,0)translate(0,0)translate(0,0)translate(0,0)translate(0,0)translate(0,0)translate(0,0)translate(0,0)translate(0,0)translate(0,0)translate(0,0)translate(0,0)translate(0,0)translate(0,0)translate(0,0)translate(0,0)translate(0,0)translate(0,0)" />
<g stroke="gray" fill="gray" stroke-width="1" transform="translate(0,0)translate(0,0)translate(0,0)translate(0,0)translate(0,0)translate(0,0)translate(0,0)translate(0,0)translate(0,0)translate(0,0)translate(0,0)translate(0,0)translate(0,0)translate(0,0)translate(0,0)translate(0,0)translate(0,0)translate(0,0)translate(0,0)translate(0,0)translate(0,0)translate(0,0)translate(0,0)translate(0,0)translate(0,0)translate(0,0)translate(0,0)translate(0,0)translate(0,0)translate(0,0)translate(0,0)translate(0,0)translate(0,0)translate(0,0)translate(0,0)translate(0,0)translate(0,0)translate(0,0)translate(0,0)translate(0,0)translate(0,0)translate(0,0)translate(0,0)translate(0,0)translate(0,0)translate(0,0)translate(0,0)translate(0,0)translate(0,0)translate(0,0)translate(0,0)translate(0,0)translate(0,0)translate(0,0)translate(0,0)translate(0,0)translate(0,0)translate(0,0)translate(0,0)translate(0,0)translate(0,0)translate(0,0)translate(0,0)translate(0,0)translate(0,0)translate(0,0)translate(0,0)translate(0,0)translate(0,0)translate(0,0)translate(0,0)translate(0,0)translate(0,0)translate(0,0)translate(0,0)translate(0,0)translate(0,0)translate(0,0)translate(0,0)translate(0,0)translate(0,0)translate(0,0)translate(0,0)translate(0,0)translate(0,0)translate(0,0)translate(0,0)translate(0,0)translate(0,0)translate(0,0)translate(0,0)translate(0,0)translate(0,0)translate(0,0)translate(0,0)translate(0,0)translate(0,0)translate(0,0)translate(0,0)translate(0,0)">
<circle cx="10" cy="10" r="2" />
<circle cx="140" cy="10" r="2" />
<path d="M40,50 L10,10" />
<path d="M110,50 L140,10" />
</g>
<path d="M40,50 C60,10,90,10,110,50" stroke="black" fill="none" stroke-width="3" transform="translate(1,0)translate(1,0)translate(1,0)translate(1,0)translate(1,0)translate(1,0)translate(1,0)translate(1,0)translate(1,0)translate(1,0)translate(1,0)translate(1,0)translate(1,0)translate(1,0)translate(1,0)translate(1,0)translate(1,0)translate(1,0)translate(1,0)translate(1,0)translate(1,0)translate(1,0)translate(1,0)translate(1,0)translate(1,0)translate(1,0)translate(1,0)translate(1,0)translate(1,0)translate(1,0)translate(1,0)translate(1,0)translate(1,0)translate(1,0)translate(1,0)translate(1,0)translate(1,0)translate(1,0)translate(1,0)translate(1,0)translate(1,0)translate(1,0)translate(1,0)translate(1,0)translate(1,0)translate(1,0)translate(1,0)translate(1,0)translate(1,0)translate(1,0)translate(1,0)translate(1,0)translate(1,0)translate(1,0)translate(1,0)translate(1,0)translate(1,0)translate(1,0)translate(1,0)translate(1,0)translate(1,0)translate(1,0)translate(1,0)translate(1,0)translate(1,0)translate(1,0)translate(1,0)translate(1,0)translate(1,0)translate(1,0)translate(1,0)translate(1,0)translate(1,0)translate(1,0)translate(1,0)translate(1,0)translate(1,0)translate(1,0)translate(1,0)translate(1,0)translate(1,0)translate(1,0)translate(1,0)translate(1,0)translate(1,0)translate(1,0)translate(1,0)translate(1,0)translate(1,0)translate(1,0)translate(1,0)translate(1,0)translate(1,0)translate(1,0)translate(1,0)translate(1,0)translate(1,0)translate(1,0)translate(1,0)translate(1,0)" />
<g stroke="gray" fill="gray" stroke-width="1" transform="translate(1,0)translate(1,0)translate(1,0)translate(1,0)translate(1,0)translate(1,0)translate(1,0)translate(1,0)translate(1,0)translate(1,0)translate(1,0)translate(1,0)translate(1,0)translate(1,0)translate(1,0)translate(1,0)translate(1,0)translate(1,0)translate(1,0)translate(1,0)translate(1,0)translate(1,0)translate(1,0)translate(1,0)translate(1,0)translate(1,0)translate(1,0)translate(1,0)translate(1,0)translate(1,0)translate(1,0)translate(1,0)translate(1,0)translate(1,0)translate(1,0)translate(1,0)translate(1,0)translate(1,0)translate(1,0)translate(1,0)translate(1,0)translate(1,0)translate(1,0)translate(1,0)translate(1,0)translate(1,0)translate(1,0)translate(1,0)translate(1,0)translate(1,0)translate(1,0)translate(1,0)translate(1,0)translate(1,0)translate(1,0)translate(1,0)translate(1,0)translate(1,0)translate(1,0)translate(1,0)translate(1,0)translate(1,0)translate(1,0)translate(1,0)translate(1,0)translate(1,0)translate(1,0)translate(1,0)translate(1,0)translate(1,0)translate(1,0)translate(1,0)translate(1,0)translate(1,0)translate(1,0)translate(1,0)translate(1,0)translate(1,0)translate(1,0)translate(1,0)translate(1,0)translate(1,0)translate(1,0)translate(1,0)translate(1,0)translate(1,0)translate(1,0)translate(1,0)translate(1,0)translate(1,0)translate(1,0)translate(1,0)translate(1,0)translate(1,0)translate(1,0)translate(1,0)translate(1,0)translate(1,0)translate(1,0)translate(1,0)">
<circle cx="60" cy="10" r="2" />
<circle cx="90" cy="10" r="2" />
<path d="M40,50 L60,10" />
<path d="M110,50 L90,10" />
</g>
<path d="M40,50 C110,10,40,10,110,50" stroke="black" fill="none" stroke-width="3" transform="translate(2,0)translate(2,0)translate(2,0)translate(2,0)translate(2,0)translate(2,0)translate(2,0)translate(2,0)translate(2,0)translate(2,0)translate(2,0)translate(2,0)translate(2,0)translate(2,0)translate(2,0)translate(2,0)translate(2,0)translate(2,0)translate(2,0)translate(2,0)translate(2,0)translate(2,0)translate(2,0)translate(2,0)translate(2,0)translate(2,0)translate(2,0)translate(2,0)translate(2,0)translate(2,0)translate(2,0)translate(2,0)translate(2,0)translate(2,0)translate(2,0)translate(2,0)translate(2,0)translate(2,0)translate(2,0)translate(2,0)translate(2,0)translate(2,0)translate(2,0)translate(2,0)translate(2,0)translate(2,0)translate(2,0)translate(2,0)translate(2,0)translate(2,0)translate(2,0)translate(2,0)translate(2,0)translate(2,0)translate(2,0)translate(2,0)translate(2,0)translate(2,0)translate(2,0)translate(2,0)translate(2,0)translate(2,0)translate(2,0)translate(2,0)translate(2,0)translate(2,0)translate(2,0)translate(2,0)translate(2,0)translate(2,0)translate(2,0)translate(2,0)translate(2,0)translate(2,0)translate(2,0)translate(2,0)translate(2,0)translate(2,0)translate(2,0)translate(2,0)translate(2,0)translate(2,0)translate(2,0)translate(2,0)translate(2,0)translate(2,0)translate(2,0)translate(2,0)translate(2,0)translate(2,0)translate(2,0)translate(2,0)translate(2,0)translate(2,0)translate(2,0)translate(2,0)translate(2,0)translate(2,0)translate(2,0)translate(2,0)" />
<g stroke="gray" fill="gray" stroke-width="1" transform="translate(2,0)translate(2,0)translate(2,0)translate(2,0)translate(2,0)translate(2,0)translate(2,0)translate(2,0)translate(2,0)translate(2,0)translate(2,0)translate(2,0)translate(2,0)translate(2,0)translate(2,0)translate(2,0)translate(2,0)translate(2,0)translate(2,0)translate(2,0)translate(2,0)translate(2,0)translate(2,0)translate(2,0)translate(2,0)translate(2,0)translate(2,0)translate(2,0)translate(2,0)translate(2,0)translate(2,0)translate(2,0)translate(2,0)translate(2,0)translate(2,0)translate(2,0)translate(2,0)translate(2,0)translate(2,0)translate(2,0)translate(2,0)translate(2,0)translate(2,0)translate(2,0)translate(2,0)translate(2,0)translate(2,0)translate(2,0)translate(2,0)translate(2,0)translate(2,0)translate(2,0)translate(2,0)translate(2,0)translate(2,0)translate(2,0)translate(2,0)translate(2,0)translate(2,0)translate(2,0)translate(2,0)translate(2,0)translate(2,0)translate(2,0)translate(2,0)translate(2,0)translate(2,0)translate(2,0)translate(2,0)translate(2,0)translate(2,0)translate(2,0)translate(2,0)translate(2,0)translate(2,0)translate(2,0)translate(2,0)translate(2,0)translate(2,0)translate(2,0)translate(2,0)translate(2,0)translate(2,0)translate(2,0)translate(2,0)translate(2,0)translate(2,0)translate(2,0)translate(2,0)translate(2,0)translate(2,0)translate(2,0)translate(2,0)translate(2,0)translate(2,0)translate(2,0)translate(2,0)translate(2,0)translate(2,0)translate(2,0)">
<circle cx="110" cy="10" r="2" />
<circle cx="40" cy="10" r="2" />
<path d="M40,50 L110,10" />
<path d="M110,50 L40,10" />
</g>
<path d="M40,50 C110,10,40,10,110,50" stroke="black" fill="none" stroke-width="3" transform="translate(3,0)translate(3,0)translate(3,0)translate(3,0)translate(3,0)translate(3,0)translate(3,0)translate(3,0)translate(3,0)translate(3,0)translate(3,0)translate(3,0)translate(3,0)translate(3,0)translate(3,0)translate(3,0)translate(3,0)translate(3,0)translate(3,0)translate(3,0)translate(3,0)translate(3,0)translate(3,0)translate(3,0)translate(3,0)translate(3,0)translate(3,0)translate(3,0)translate(3,0)translate(3,0)translate(3,0)translate(3,0)translate(3,0)translate(3,0)translate(3,0)translate(3,0)translate(3,0)translate(3,0)translate(3,0)translate(3,0)translate(3,0)translate(3,0)translate(3,0)translate(3,0)translate(3,0)translate(3,0)translate(3,0)translate(3,0)translate(3,0)translate(3,0)translate(3,0)translate(3,0)translate(3,0)translate(3,0)translate(3,0)translate(3,0)translate(3,0)translate(3,0)translate(3,0)translate(3,0)translate(3,0)translate(3,0)translate(3,0)translate(3,0)translate(3,0)translate(3,0)translate(3,0)translate(3,0)translate(3,0)translate(3,0)translate(3,0)translate(3,0)translate(3,0)translate(3,0)translate(3,0)translate(3,0)translate(3,0)translate(3,0)translate(3,0)translate(3,0)translate(3,0)translate(3,0)translate(3,0)translate(3,0)translate(3,0)translate(3,0)translate(3,0)translate(3,0)translate(3,0)translate(3,0)translate(3,0)translate(3,0)translate(3,0)translate(3,0)translate(3,0)translate(3,0)translate(3,0)translate(3,0)translate(3,0)translate(3,0)" />
<g stroke="gray" fill="gray" stroke-width="1" transform="translate(3,0)translate(3,0)translate(3,0)translate(3,0)translate(3,0)translate(3,0)translate(3,0)translate(3,0)translate(3,0)translate(3,0)translate(3,0)translate(3,0)translate(3,0)translate(3,0)translate(3,0)translate(3,0)translate(3,0)translate(3,0)translate(3,0)translate(3,0)translate(3,0)translate(3,0)translate(3,0)translate(3,0)translate(3,0)translate(3,0)translate(3,0)translate(3,0)translate(3,0)translate(3,0)translate(3,0)translate(3,0)translate(3,0)translate(3,0)translate(3,0)translate(3,0)translate(3,0)translate(3,0)translate(3,0)translate(3,0)translate(3,0)translate(3,0)translate(3,0)translate(3,0)translate(3,0)translate(3,0)translate(3,0)translate(3,0)translate(3,0)translate(3,0)translate(3,0)translate(3,0)translate(3,0)translate(3,0)translate(3,0)translate(3,0)translate(3,0)translate(3,0)translate(3,0)translate(3,0)translate(3,0)translate(3,0)translate(3,0)translate(3,0)translate(3,0)translate(3,0)translate(3,0)translate(3,0)translate(3,0)translate(3,0)translate(3,0)translate(3,0)translate(3,0)translate(3,0)translate(3,0)translate(3,0)translate(3,0)translate(3,0)translate(3,0)translate(3,0)translate(3,0)translate(3,0)translate(3,0)translate(3,0)translate(3,0)translate(3,0)translate(3,0)translate(3,0)translate(3,0)translate(3,0)translate(3,0)translate(3,0)translate(3,0)translate(3,0)translate(3,0)translate(3,0)translate(3,0)translate(3,0)translate(3,0)translate(3,0)">
<circle cx="110" cy="10" r="2" />
<circle cx="40" cy="10" r="2" />
<path d="M40,50 L110,10" />
<path d="M110,50 L40,10" />
</g>
<path d="M40,50 C60,10,90,90,110,50" stroke="black" fill="none" stroke-width="3" transform="translate(4,0)translate(4,0)translate(4,0)translate(4,0)translate(4,0)translate(4,0)translate(4,0)translate(4,0)translate(4,0)translate(4,0)translate(4,0)translate(4,0)translate(4,0)translate(4,0)translate(4,0)translate(4,0)translate(4,0)translate(4,0)translate(4,0)translate(4,0)translate(4,0)translate(4,0)translate(4,0)translate(4,0)translate(4,0)translate(4,0)translate(4,0)translate(4,0)translate(4,0)translate(4,0)translate(4,0)translate(4,0)translate(4,0)translate(4,0)translate(4,0)translate(4,0)translate(4,0)translate(4,0)translate(4,0)translate(4,0)translate(4,0)translate(4,0)translate(4,0)translate(4,0)translate(4,0)translate(4,0)translate(4,0)translate(4,0)translate(4,0)translate(4,0)translate(4,0)translate(4,0)translate(4,0)translate(4,0)translate(4,0)translate(4,0)translate(4,0)translate(4,0)translate(4,0)translate(4,0)translate(4,0)translate(4,0)translate(4,0)translate(4,0)translate(4,0)translate(4,0)translate(4,0)translate(4,0)translate(4,0)translate(4,0)translate(4,0)translate(4,0)translate(4,0)translate(4,0)translate(4,0)translate(4,0)translate(4,0)translate(4,0)translate(4,0)translate(4,0)translate(4,0)translate(4,0)translate(4,0)translate(4,0)translate(4,0)translate(4,0)translate(4,0)translate(4,0)translate(4,0)translate(4,0)translate(4,0)translate(4,0)translate(4,0)translate(4,0)translate(4,0)translate(4,0)translate(4,0)translate(4,0)translate(4,0)translate(4,0)" />
<g stroke="gray" fill="gray" stroke-width="1" transform="translate(4,0)translate(4,0)translate(4,0)translate(4,0)translate(4,0)translate(4,0)translate(4,0)translate(4,0)translate(4,0)translate(4,0)translate(4,0)translate(4,0)translate(4,0)translate(4,0)translate(4,0)translate(4,0)translate(4,0)translate(4,0)translate(4,0)translate(4,0)translate(4,0)translate(4,0)translate(4,0)translate(4,0)translate(4,0)translate(4,0)translate(4,0)translate(4,0)translate(4,0)translate(4,0)translate(4,0)translate(4,0)translate(4,0)translate(4,0)translate(4,0)translate(4,0)translate(4,0)translate(4,0)translate(4,0)translate(4,0)translate(4,0)translate(4,0)translate(4,0)translate(4,0)translate(4,0)translate(4,0)translate(4,0)translate(4,0)translate(4,0)translate(4,0)translate(4,0)translate(4,0)translate(4,0)translate(4,0)translate(4,0)translate(4,0)translate(4,0)translate(4,0)translate(4,0)translate(4,0)translate(4,0)translate(4,0)translate(4,0)translate(4,0)translate(4,0)translate(4,0)translate(4,0)translate(4,0)translate(4,0)translate(4,0)translate(4,0)translate(4,0)translate(4,0)translate(4,0)translate(4,0)translate(4,0)translate(4,0)translate(4,0)translate(4,0)translate(4,0)translate(4,0)translate(4,0)translate(4,0)translate(4,0)translate(4,0)translate(4,0)translate(4,0)translate(4,0)translate(4,0)translate(4,0)translate(4,0)translate(4,0)translate(4,0)translate(4,0)translate(4,0)translate(4,0)translate(4,0)translate(4,0)translate(4,0)translate(4,0)">
<circle cx="60" cy="10" r="2" />
<circle cx="90" cy="90" r="2" />
<path d="M40,50 L60,10" />
<path d="M110,50 L90,90" />
</g>
<path d="M40,50 C110,10,40,90,110,50" stroke="black" fill="none" stroke-width="3" transform="translate(5,0)translate(5,0)translate(5,0)translate(5,0)translate(5,0)translate(5,0)translate(5,0)translate(5,0)translate(5,0)translate(5,0)translate(5,0)translate(5,0)translate(5,0)translate(5,0)translate(5,0)translate(5,0)translate(5,0)translate(5,0)translate(5,0)translate(5,0)translate(5,0)translate(5,0)translate(5,0)translate(5,0)translate(5,0)translate(5,0)translate(5,0)translate(5,0)translate(5,0)translate(5,0)translate(5,0)translate(5,0)translate(5,0)translate(5,0)translate(5,0)translate(5,0)translate(5,0)translate(5,0)translate(5,0)translate(5,0)translate(5,0)translate(5,0)translate(5,0)translate(5,0)translate(5,0)translate(5,0)translate(5,0)translate(5,0)translate(5,0)translate(5,0)translate(5,0)translate(5,0)translate(5,0)translate(5,0)translate(5,0)translate(5,0)translate(5,0)translate(5,0)translate(5,0)translate(5,0)translate(5,0)translate(5,0)translate(5,0)translate(5,0)translate(5,0)translate(5,0)translate(5,0)translate(5,0)translate(5,0)translate(5,0)translate(5,0)translate(5,0)translate(5,0)translate(5,0)translate(5,0)translate(5,0)translate(5,0)translate(5,0)translate(5,0)translate(5,0)translate(5,0)translate(5,0)translate(5,0)translate(5,0)translate(5,0)translate(5,0)translate(5,0)translate(5,0)translate(5,0)translate(5,0)translate(5,0)translate(5,0)translate(5,0)translate(5,0)translate(5,0)translate(5,0)translate(5,0)translate(5,0)translate(5,0)translate(5,0)" />
<g stroke="gray" fill="gray" stroke-width="1" transform="translate(5,0)translate(5,0)translate(5,0)translate(5,0)translate(5,0)translate(5,0)translate(5,0)translate(5,0)translate(5,0)translate(5,0)translate(5,0)translate(5,0)translate(5,0)translate(5,0)translate(5,0)translate(5,0)translate(5,0)translate(5,0)translate(5,0)translate(5,0)translate(5,0)translate(5,0)translate(5,0)translate(5,0)translate(5,0)translate(5,0)translate(5,0)translate(5,0)translate(5,0)translate(5,0)translate(5,0)translate(5,0)translate(5,0)translate(5,0)translate(5,0)translate(5,0)translate(5,0)translate(5,0)translate(5,0)translate(5,0)translate(5,0)translate(5,0)translate(5,0)translate(5,0)translate(5,0)translate(5,0)translate(5,0)translate(5,0)translate(5,0)translate(5,0)translate(5,0)translate(5,0)translate(5,0)translate(5,0)translate(5,0)translate(5,0)translate(5,0)translate(5,0)translate(5,0)translate(5,0)translate(5,0)translate(5,0)translate(5,0)translate(5,0)translate(5,0)translate(5,0)translate(5,0)translate(5,0)translate(5,0)translate(5,0)translate(5,0)translate(5,0)translate(5,0)translate(5,0)translate(5,0)translate(5,0)translate(5,0)translate(5,0)translate(5,0)translate(5,0)translate(5,0)translate(5,0)translate(5,0)translate(5,0)translate(5,0)translate(5,0)translate(5,0)translate(5,0)translate(5,0)translate(5,0)translate(5,0)translate(5,0)translate(5,0)translate(5,0)translate(5,0)translate(5,0)translate(5,0)translate(5,0)translate(5,0)translate(5,0)">
<circle cx="110" cy="10" r="2" />
<circle cx="40" cy="90" r="2" />
<path d="M40,50 L110,10" />
<path d="M110,50 L40,90" />
</g>
</svg>